<svg width="24" height="24" viewBox="0 0 24 24" fill="none" xmlns="http://www.w3.org/2000/svg">
<path d="M5.97128 2.98634C5.58145 2.9976 5.21133 3.16029 4.93945 3.4399L1.94034 6.43759C1.80072 6.57689 1.68994 6.74235 1.61436 6.92452C1.53878 7.10668 1.49988 7.30197 1.49988 7.49919C1.49988 7.69641 1.53878 7.8917 1.61436 8.07386C1.68994 8.25603 1.80072 8.42149 1.94034 8.56078L4.93945 11.5613C6.35397 12.9843 8.48425 10.8541 7.06264 9.43812L6.62185 8.99875H15.0012C17.5199 8.99875 19.4999 10.9802 19.4999 13.5003C19.4999 16.0203 17.5184 18.0003 15.0012 18.0003H12.0007C9.91719 18.0003 9.91719 20.998 12.0007 20.998H15.0012C19.13 20.998 22.5004 17.629 22.5004 13.5003C22.5004 9.37151 19.13 6.00105 15.0012 6.00105H6.62185L7.06123 5.56025C8.04203 4.60638 7.34044 2.94524 5.97128 2.98634Z" fill="black"/>
</svg>
