<svg width="24" height="24" viewBox="0 0 24 24" fill="none" xmlns="http://www.w3.org/2000/svg">
<path d="M1.125 5.625H19.875V17.625H1.125V5.625Z" fill="#FF9811"/>
<path d="M18.375 5.625V14.625C18.375 15.2217 18.1379 15.794 17.716 16.216C17.294 16.6379 16.7217 16.875 16.125 16.875H1.125V17.625H19.875V5.625H18.375Z" fill="#EE8700"/>
<path d="M21.9964 11.9351L19.875 9.81375V13.9688L18.5363 12.63L18.2438 12.3375C18.0324 12.1262 17.7458 12.0074 17.4469 12.0074C17.148 12.0074 16.8614 12.1262 16.65 12.3375C16.4387 12.5488 16.3199 12.8355 16.3199 13.1344C16.3199 13.4333 16.4387 13.7199 16.65 13.9313L17.5095 14.7908L18.6188 15.9C18.419 16.1352 18.2678 16.4075 18.1736 16.7014C18.0795 16.9952 18.0443 17.3048 18.0701 17.6123L18.0638 17.625H16.1625C16.0222 18.1398 15.9941 18.6788 16.0801 19.2055C16.1662 19.7321 16.3644 20.2341 16.6613 20.6775L16.875 21V22.875H22.1284L22.125 21.2291C22.1243 21.0798 22.1682 20.9337 22.251 20.8095L22.4959 20.442C22.7428 20.0725 22.8747 19.6381 22.875 19.1936V14.0561C22.875 13.2606 22.5589 12.4977 21.9964 11.9351Z" fill="#FFBCAB"/>
<path d="M4.875 9.375H16.125C16.6175 9.375 17.1051 9.278 17.5601 9.08955C18.015 8.90109 18.4284 8.62487 18.7767 8.27665C19.1249 7.92843 19.4011 7.51503 19.5895 7.06006C19.778 6.60509 19.875 6.11746 19.875 5.625H1.125C1.125 6.61956 1.52009 7.57339 2.22335 8.27665C2.92661 8.97991 3.88044 9.375 4.875 9.375Z" fill="#FFB655"/>
<path d="M10.5 10.5C11.1213 10.5 11.625 9.99632 11.625 9.375C11.625 8.75368 11.1213 8.25 10.5 8.25C9.87868 8.25 9.375 8.75368 9.375 9.375C9.375 9.99632 9.87868 10.5 10.5 10.5Z" fill="#D80027"/>
<path d="M2.625 13.875H8.625V16.125H2.625V13.875Z" fill="#FFCD00"/>
<path d="M15.375 14.625H12.375C12.2755 14.625 12.1802 14.5855 12.1098 14.5152C12.0395 14.4448 12 14.3495 12 14.25C12 14.1505 12.0395 14.0552 12.1098 13.9848C12.1802 13.9145 12.2755 13.875 12.375 13.875H15.375C15.4745 13.875 15.5698 13.9145 15.6402 13.9848C15.7105 14.0552 15.75 14.1505 15.75 14.25C15.75 14.3495 15.7105 14.4448 15.6402 14.5152C15.5698 14.5855 15.4745 14.625 15.375 14.625ZM16.125 16.125H12.375C12.2755 16.125 12.1802 16.0855 12.1098 16.0152C12.0395 15.9448 12 15.8495 12 15.75C12 15.6505 12.0395 15.5552 12.1098 15.4848C12.1802 15.4145 12.2755 15.375 12.375 15.375H16.125C16.2245 15.375 16.3198 15.4145 16.3902 15.4848C16.4605 15.5552 16.5 15.6505 16.5 15.75C16.5 15.8495 16.4605 15.9448 16.3902 16.0152C16.3198 16.0855 16.2245 16.125 16.125 16.125Z" fill="#FF5023"/>
<path d="M18.1988 18.9075L18.375 19.125H18.75L18.5738 18.9075C18.2822 18.5396 18.1071 18.093 18.0709 17.625H17.6959C17.7321 18.093 17.9072 18.5396 18.1988 18.9075Z" fill="#FF9478"/>
</svg>
