<svg width="24" height="24" viewBox="0 0 24 24" fill="none" xmlns="http://www.w3.org/2000/svg">
<g clip-path="url(#clip0_44_12)">
<path d="M14.4 13.2C14.1639 13.2005 13.9332 13.2706 13.7368 13.4016C13.5404 13.5326 13.3869 13.7186 13.2957 13.9364C13.2045 14.1542 13.1796 14.394 13.224 14.6259C13.2685 14.8578 13.3803 15.0714 13.5456 15.24C13.542 15.24 13.5384 15.24 13.536 15.2424L8.7564 10.4628C9.10274 9.72104 9.69215 9.11992 10.4269 8.75906C11.1617 8.3982 11.9978 8.29927 12.7965 8.47868C13.5952 8.65809 14.3087 9.10505 14.8185 9.74549C15.3284 10.3859 15.6042 11.1814 15.6 12C15.6 12.5556 15.4632 13.0752 15.24 13.5456C15.0165 13.3242 14.7146 13.2 14.4 13.2ZM6.1596 10.6692C6.05673 11.1054 6.0032 11.5518 6 12C6 13.5913 6.63214 15.1174 7.75736 16.2426C8.88258 17.3679 10.4087 18 12 18C12.4644 18 12.912 17.9352 13.3452 17.8356L15.3048 19.7892C14.2704 20.1612 13.1712 20.4 12 20.4C4.8 20.4 0 12 0 12C0 12 1.1976 9.90599 3.2916 7.80839L6.1596 10.6692Z" fill="black"/>
<path d="M17.2056 18.912L15.2988 17.004C16.1285 16.4591 16.8098 15.7166 17.2813 14.8431C17.7528 13.9696 17.9998 12.9926 18 12C18 10.4087 17.3678 8.88256 16.2426 7.75735C15.1174 6.63213 13.5913 5.99999 12 5.99999C11.0073 5.99987 10.0301 6.24657 9.15641 6.71788C8.28271 7.18919 7.53989 7.87032 6.99479 8.69999L4.77359 6.47999C6.71639 4.90319 9.16799 3.59999 12 3.59999C19.2 3.59999 24 12 24 12C24 12 21.4152 16.5012 17.2056 18.912Z" fill="black"/>
</g>
<defs>
<clipPath id="clip0_44_12">
<rect width="24" height="24" fill="white" transform="matrix(1 0 0 -1 0 24)"/>
</clipPath>
</defs>
</svg>
